# xmcd
#
# Track frame offsets: 
#        182
#        15540
#        26997
#        36930
#        49222
#        60420
#        72492
#        83362
#        95425
#        107847
#        121027
#        133650
#        144062
#        155692
#        167657
#        184372
#        194182
#        205100
#        217755
#        227460
#        238960
#        254805
#        265537
#        276922
#        289817
#        301030
#        312727
#        325940
#
# Disc length: 4482 seconds
#
# Revision: 2
# Processed by: cddbd v1.5.2PL0 Copyright (c) Steve Scherf et al.
# Submitted via: ExactAudioCopy v0.95b4
#
DISCID=9b11801c
DTITLE=John Lee hooker - Boogie Chillum
DYEAR=1900
DGENRE=Blues
TTITLE0=Tupelo
TTITLE1=Boogie Chillum
TTITLE2=Dimples
TTITLE3=Drug Store Woman
TTITLE4=Boom Bomm
TTITLE5=Frisco Blues
TTITLE6=No Shoe
TTITLE7=I'm In The Mood
TTITLE8=Hobo Blues
TTITLE9=Baby Lee
TTITLE10=Trouble Blues
TTITLE11=Old Little Shimmy
TTITLE12=Little Wheel
TTITLE13=Whiskey And Wimmen
TTITLE14=Process
TTITLE15=Dusty Road
TTITLE16=Send Me Your Pillow
TTITLE17=I'm So Excited
TTITLE18=Onions
TTITLE19=Good Rockin' Mama
TTITLE20=Thelma
TTITLE21=Keep Your Hands To Yourself
TTITLE22=What Do You Say
TTITLE23=Lost A Good Girl
TTITLE24=Let's Make It
TTITLE25=Hard Hearted Woman
TTITLE26=I'm Going Upstairs
TTITLE27=I'm Leaving
EXTD=
EXTT0=
EXTT1=
EXTT2=
EXTT3=
EXTT4=
EXTT5=
EXTT6=
EXTT7=
EXTT8=
EXTT9=
EXTT10=
EXTT11=
EXTT12=
EXTT13=
EXTT14=
EXTT15=
EXTT16=
EXTT17=
EXTT18=
EXTT19=
EXTT20=
EXTT21=
EXTT22=
EXTT23=
EXTT24=
EXTT25=
EXTT26=
EXTT27=
PLAYORDER=
